<svg xmlns="http://www.w3.org/2000/svg" width="79.37" height="90.709" viewBox="0 0 21 24"><g fill-rule="evenodd"><path d="M19.538 4.9L11.962.403a2.855 2.855 0 00-2.924 0L1.461 4.9A3.022 3.022 0 000 7.503v8.995c0 1.073.557 2.066 1.462 2.603l7.576 4.497a2.857 2.857 0 002.923 0l7.577-4.497A3.023 3.023 0 0021 16.498V7.503A3.022 3.022 0 0019.538 4.9z" fill="#fefefe"/><path d="M9.303 23.137L1.726 18.64a2.494 2.494 0 01-1.201-2.142V7.503c0-.882.46-1.702 1.201-2.142L9.303.863c.364-.215.777-.33 1.197-.33.42 0 .833.115 1.197.33l7.577 4.498a2.478 2.478 0 011.164 1.732c-.252-.536-.818-.682-1.479-.296l-7.168 4.427c-.894.523-1.553 1.11-1.553 2.187v8.833c0 .645.26 1.063.66 1.184a2.334 2.334 0 01-.398.039c-.42 0-.833-.114-1.197-.33M19.538 4.9L11.962.403a2.859 2.859 0 00-2.924 0L1.461 4.9A3.022 3.022 0 000 7.503v8.995c0 1.073.557 2.066 1.462 2.603l7.576 4.497a2.861 2.861 0 002.923 0l7.577-4.497A3.022 3.022 0 0021 16.498V7.503A3.022 3.022 0 0019.538 4.9" fill="#3e474a"/><path d="M17.552 17.368l-1.886 1.129c-.05.029-.087.062-.088.122v.493c0 .06.04.086.09.057l1.917-1.165c.05-.029.057-.085.058-.145v-.435c0-.06-.04-.086-.09-.056" fill="#47b353"/><path d="M13.535 13.212c.06-.031.111.007.112.087l.006.653c.273-.11.51-.138.726-.089.046.013.067.076.048.152l-.144.578a.248.248 0 01-.065.116.153.153 0 01-.038.028.086.086 0 01-.057.009c-.098-.022-.331-.073-.698.113-.386.195-.52.53-.518.778.003.296.156.386.681.395.7.012 1.003.318 1.01 1.023.007.692-.363 1.436-.928 1.891l.012.647c.001.077-.05.167-.11.197l-.383.22c-.061.032-.112-.006-.112-.084l-.007-.636c-.328.137-.66.17-.873.084-.04-.015-.057-.074-.04-.142l.138-.584a.242.242 0 01.068-.121.143.143 0 01.036-.026.076.076 0 01.062-.007c.229.077.521.041.802-.101.357-.181.596-.545.593-.907-.003-.329-.182-.465-.614-.468-.55.001-1.063-.107-1.072-.917-.007-.667.34-1.361.89-1.8l-.008-.653c0-.08.048-.168.111-.2z" fill="#fefefe"/></g></svg>