<svg xmlns="http://www.w3.org/2000/svg" id="Layer_1" data-name="Layer 1" version="1.1" width="37.278" height="37.278"><defs id="defs4"><style id="style2">.cls-3{fill:#fff}</style></defs><g id="g4520"><circle id="circle8" r="18.383" cy="18.383" cx="18.895" fill="#05930c" stroke-width=".574"/></g><path d="M6.153 5.17a18.383 18.383 0 1025.954 25.955z" id="path10" opacity=".1" fill="#fff" stroke-width=".574"/><g id="g4517" transform="translate(-5.534 -5.274) scale(1.2863)"><path id="path12" d="M17.993 25.018a8.49 8.49 0 01-4.022.85 6.451 6.451 0 01-4.946-1.987 7.342 7.342 0 01-1.855-5.222 7.692 7.692 0 012.09-5.613 7.095 7.095 0 015.32-2.131 8.502 8.502 0 013.413.574v1.81a6.894 6.894 0 00-3.447-.868 5.268 5.268 0 00-4.021 1.666 6.279 6.279 0 00-1.551 4.453 5.974 5.974 0 001.447 4.216 4.929 4.929 0 003.803 1.568 7.135 7.135 0 003.774-.97z" class="cls-3" fill="#fff" stroke-width=".574"/><path id="path14" d="M30.82 15.824l-.23 1.068h-2.642l-.632 3.033h2.838l-.27 1.069h-2.78l-.89 4.021h-1.27l.867-4.021h-2.527l-.85 4.021h-1.241l.85-4.021h-2.666l.201-1.069h2.677l.615-3.027h-2.798l.213-1.069h2.798l.85-4.061h1.28l-.85 4.061h2.545l.868-4.061h1.24l-.85 4.061zm-4.118 1.068H24.15l-.66 3.033h2.562z" class="cls-3" fill="#fff" stroke-width=".574"/></g></svg>