<svg xmlns="http://www.w3.org/2000/svg" width="213.021" height="288.833" viewBox="0 0 273.631 371.013"><path d="M88.126 286.925s-14.178 8.245 10.09 11.035c29.4 3.354 44.426 2.873 76.825-3.259 0 0 8.518 5.341 20.414 9.967-72.63 31.128-164.376-1.803-107.33-17.743m-8.875-40.62s-15.901 11.771 8.385 14.283c31.406 3.24 56.208 3.505 99.125-4.759 0 0 5.936 6.018 15.27 9.309-87.814 25.678-185.623 2.025-122.78-18.833" fill="#5382a1"/><path d="M154.07 177.4c17.896 20.604-4.702 39.145-4.702 39.145s45.44-23.458 24.572-52.833c-19.491-27.394-34.438-41.005 46.479-87.934 0 0-127.013 31.722-66.35 101.622" fill="#f8981d"/><path d="M250.129 316.97s10.492 8.645-11.555 15.333c-41.923 12.7-174.488 16.535-211.314.506-13.238-5.759 11.587-13.751 19.396-15.428 8.144-1.766 12.798-1.437 12.798-1.437-14.722-10.371-95.157 20.364-40.857 29.166 148.084 24.015 269.943-10.814 231.532-28.14M94.944 204.218s-67.431 16.016-23.88 21.832c18.39 2.462 55.048 1.905 89.194-.956 27.906-2.354 55.927-7.359 55.927-7.359s-9.84 4.214-16.96 9.075c-68.474 18.009-200.755 9.631-162.673-8.79 32.206-15.568 58.392-13.802 58.392-13.802m120.963 67.614c69.608-36.171 37.424-70.931 14.96-66.248-5.506 1.146-7.961 2.139-7.961 2.139s2.044-3.202 5.948-4.588c44.44-15.624 78.619 46.081-14.346 70.52 0 .001 1.077-.962 1.399-1.823" fill="#5382a1"/><path d="M173.94 0s38.55 38.563-36.563 97.862c-60.233 47.568-13.735 74.69-.025 105.678-35.16-31.722-60.961-59.647-43.651-85.637C119.108 79.752 189.494 61.255 173.94 0" fill="#f8981d"/><path d="M101.784 369.847c66.815 4.277 169.417-2.373 171.847-33.988 0 0-4.671 11.985-55.22 21.503-57.027 10.732-127.363 9.479-169.08 2.601 0-.001 8.54 7.068 52.453 9.884" fill="#5382a1"/></svg>