<svg xmlns="http://www.w3.org/2000/svg" width="28.638" height="41.189" viewBox="0 0 7.577 10.898"><g transform="translate(-27.296 -31.18)"><path d="M34.873 40.347c0 .956-1.697 1.731-3.789 1.731s-3.788-.775-3.788-1.73v-2.48c0 .956 1.696 1.731 3.788 1.731 2.092 0 3.789-.775 3.789-1.73" fill="#2c83c8"/><path d="M34.873 37.868c0 .956-1.697 1.731-3.789 1.731s-3.788-.775-3.788-1.73v-2.48c0 .956 1.696 1.731 3.788 1.731 2.092 0 3.789-.775 3.789-1.73" fill="#1f6fc1"/><g transform="translate(4.313 -.75)" fill="#b6f78b"><circle r=".314" cy="39.161" cx="25.929"/><circle cx="27.613" cy="39.161" r=".314"/><circle r=".314" cy="39.161" cx="26.771"/></g><path d="M34.873 35.39c0 .955-1.697 1.73-3.789 1.73s-3.788-.775-3.788-1.73v-2.48c0 .956 1.696 1.731 3.788 1.731 2.092 0 3.789-.775 3.789-1.73" fill="#2c83c8"/><ellipse ry="1.731" rx="3.789" cy="32.911" cx="31.084" fill="#52a3d8" fill-opacity=".985"/><g transform="translate(4.313 -3.23)" fill="#b6f78b"><circle r=".314" cy="39.161" cx="25.929"/><circle cx="27.613" cy="39.161" r=".314"/><circle r=".314" cy="39.161" cx="26.771"/></g><g transform="translate(4.313 1.729)" fill="#b6f78b"><circle cx="25.929" cy="39.161" r=".314"/><circle r=".314" cy="39.161" cx="27.613"/><circle cx="26.771" cy="39.161" r=".314"/></g></g></svg>