<svg width="64" height="64" xmlns="http://www.w3.org/2000/svg"><g fill="none" fill-rule="evenodd"><path fill="#2477C6" d="M0 0h64v64H0z"/><path d="M24.04 34.24h-8.68v-4.56h22.4v4.56h-8.68V58h-5.04V34.24zm31.04 1.52a4.65 4.65 0 00-2.14-1.7 7.474 7.474 0 00-2.82-.54c-.587 0-1.153.067-1.7.2a4.615 4.615 0 00-1.48.64 3.34 3.34 0 00-1.06 1.14c-.267.467-.4 1.02-.4 1.66 0 .96.333 1.693 1 2.2.667.507 1.493.947 2.48 1.32.987.373 2.067.733 3.24 1.08a13.21 13.21 0 013.24 1.44 8.012 8.012 0 012.48 2.44c.667 1.013 1 2.36 1 4.04 0 1.52-.28 2.847-.84 3.98a8.11 8.11 0 01-2.26 2.82c-.947.747-2.047 1.307-3.3 1.68a13.8 13.8 0 01-3.96.56 14.86 14.86 0 01-5.08-.88c-1.627-.587-3.027-1.573-4.2-2.96l3.8-3.68a6.355 6.355 0 002.42 2.18c1 .52 2.06.78 3.18.78.587 0 1.173-.08 1.76-.24a5.44 5.44 0 001.6-.72c.48-.32.867-.727 1.16-1.22.293-.493.44-1.06.44-1.7 0-1.04-.333-1.84-1-2.4-.667-.56-1.493-1.033-2.48-1.42a39.835 39.835 0 00-3.24-1.1 13.644 13.644 0 01-3.24-1.42 7.88 7.88 0 01-2.48-2.4c-.667-1-1-2.34-1-4.02 0-1.467.3-2.733.9-3.8a8.231 8.231 0 012.36-2.66c.973-.707 2.087-1.233 3.34-1.58a14.339 14.339 0 013.84-.52 14 14 0 014.34.68c1.4.453 2.66 1.2 3.78 2.24l-3.68 3.88z" fill="#FFF" fill-rule="nonzero"/></g></svg>